<svg xmlns="http://www.w3.org/2000/svg" xmlns:xlink="http://www.w3.org/1999/xlink" viewBox="0 0 669.02 647.49"><defs><style>.cls-1{mask:url(#mask);}.cls-2{fill:#f8e7d5;}.cls-3{fill:#fff;}.cls-4{mask:url(#mask-2);}.cls-10,.cls-5,.cls-6,.cls-7,.cls-8{fill:none;}.cls-5,.cls-7{stroke:#000;}.cls-10,.cls-5,.cls-8{stroke-miterlimit:10;}.cls-5{stroke-width:23.56px;}.cls-6{stroke:#fff;stroke-width:26.78px;}.cls-6,.cls-7{stroke-linecap:round;stroke-linejoin:round;}.cls-7{stroke-width:17.37px;}.cls-10,.cls-8{stroke:#ac1c1c;}.cls-8{stroke-width:6.17px;}.cls-9{fill:#ac1c1c;}.cls-10{stroke-width:1.03px;}.cls-11{filter:url(#luminosity-noclip-2);}.cls-12{filter:url(#luminosity-noclip);}</style><filter id="luminosity-noclip" x="12.2" y="-9217.07" width="656.82" height="32766" filterUnits="userSpaceOnUse" color-interpolation-filters="sRGB"><feFlood flood-color="#fff" result="bg"/><feBlend in="SourceGraphic" in2="bg"/></filter><mask id="mask" x="12.2" y="-9217.07" width="656.82" height="32766" maskUnits="userSpaceOnUse"><g class="cls-12"/></mask><filter id="luminosity-noclip-2" x="0" y="-9217.07" width="645.95" height="32766" filterUnits="userSpaceOnUse" color-interpolation-filters="sRGB"><feFlood flood-color="#fff" result="bg"/><feBlend in="SourceGraphic" in2="bg"/></filter><mask id="mask-2" x="0" y="-9217.07" width="645.95" height="32766" maskUnits="userSpaceOnUse"><g class="cls-11"/></mask></defs><g id="圖層_2" data-name="圖層 2"><g id="圖層_1-2" data-name="圖層 1"><g class="cls-1"><ellipse class="cls-2" cx="340.61" cy="323.75" rx="328.89" ry="313.79" transform="translate(-53.11 67.21) rotate(-10.46)"/></g><path class="cls-3" d="M291.36,417.89c6.49.08-16.75-10.24-34.58-11-1.4-4-2.73-8.13-3.91-12.4C238,390.9,198.52,312.16,274.71,258c44.43-31.56,3.42-65.05,2.47-67.45l-113.1,44.25,61.5,8.87C140.44,332.41,229,534.64,390,519.39c-35.93-6.24-61.12-19.41-76.27-29.13-15.39-9.88-46-38.36-44.34-55.74C270.84,420,282.52,417.77,291.36,417.89Z"/><path class="cls-3" d="M277.18,190.59l.26-.1C277.19,190.41,277.12,190.45,277.18,190.59Z"/><g class="cls-4"><path class="cls-5" d="M556.1,111.83c7.4,8.13,12.34,18.14,18.69,26.82,6.48,8.84,14.25,16.74,19.65,26.07a282.32,282.32,0,0,1,25.94,59.86,307.77,307.77,0,0,1,8.25,31.57c2.19,10.66,2,21.65,3,32.45s2.62,21.54,2.53,32.41-.1,21.75-1.31,32.56-4.42,21.23-6.75,31.86-4,21.35-7.38,31.7-6.17,20.95-10.64,30.9-10.67,19-16.15,28.41a317.1,317.1,0,0,1-18,27.12,316.59,316.59,0,0,1-20.19,25.56,313.71,313.71,0,0,1-48.51,43.32c-8.81,6.53-17.13,13.68-26.4,19.17A317,317,0,0,1,450,607a316.78,316.78,0,0,1-30.43,11.91c-10.33,3.52-21.35,4.41-31.9,6.82s-21.07,5.39-31.82,6.7-21.62,3-32.46,3.22a314.75,314.75,0,0,1-32.66-.85c-10.83-.94-21.53-3.32-32.2-5.39s-20.94-5.6-31.35-8.78-21.2-5.22-31.22-9.5-19.06-10.41-28.58-15.75a283.91,283.91,0,0,1-53.31-37.2C106,551,99,542.75,91.56,534.63a305.83,305.83,0,0,1-20.79-25c-6.48-8.85-11.89-18.18-17.29-27.51s-12-18.31-16.39-28.18-7-20.63-10.31-30.94a304.87,304.87,0,0,1-7.89-31.51A335.09,335.09,0,0,1,12.2,327c.08-10.85-1.07-21.84.14-32.65s5.41-21.1,7.74-31.74,4.64-21.1,8.06-31.45A312.7,312.7,0,0,1,40.24,201c4.43-9.86,8-20.18,13.53-29.63s10.9-18.81,17.34-27.66A317.42,317.42,0,0,1,91.58,118.2c7.18-8,16.54-14,24.67-21.4S131.77,81.4,140.41,75a317.57,317.57,0,0,1,27.2-18,315.15,315.15,0,0,1,29-14.7c9.93-4.57,20.16-8.07,30.39-11.55s20.46-7.45,31-9.86a314.52,314.52,0,0,1,32.12-5.35C301,14.26,311.79,12,322.63,11.82a315,315,0,0,1,32.67,1.33c10.83.94,21.44,3.83,32.11,5.9s21.59,3.29,32,6.47,20.1,8.3,30.12,12.58a303.44,303.44,0,0,1,29,14.67c9.42,5.29,19.59,9.58,28.5,15.92s16.52,14,24.72,21.33C539.81,97.16,548.71,103.7,556.1,111.83Z"/></g><path class="cls-6" d="M453.73,447.12s84.6,7.16,106.11-37.54"/><path class="cls-6" d="M456.14,387.76s84.61,7,106-37.72"/><path class="cls-6" d="M451.35,328.21s84.61,7.17,106.11-37.54"/><path class="cls-6" d="M464.57,513.48C361.86,565.3,232,506.75,202.79,397.62c-9-33.63-8.61-63.34-3.26-88,9.52-43.88,38.88-63.67,38.88-63.67,4-13.33-106.23,18-167.06,36.16-1.53.45-2-3.17-.5-3.78L237.12,204.5c17.17-8.58,21.46-8.58,30-8.58,38.21,1.06,25.83,40.61,11.48,53.52-28.26,25.45-65.14,65-45.06,112,3.84,6.78,7.5,12.59,11,17.55.37.39,4.91,5.33,4.91,5.33,23.57,25.65,56.52,27,80.89,3.37,33.27-32.26,32.88-100.2,67.55-136.37,24.45-25.51,45.92-25.58,72-22.15,9.19,1.21,26.69,5.23,41.17,8.23,25.68,5.34,53.54-7.15,61.75-16.46"/><path class="cls-3" d="M258.36,221.63c0,.69.58,1.36.41,2s0,1.53-.34,2.11-1.4.66-1.88,1.13a7.2,7.2,0,0,1-1.46,1.3c-.58.33-1,1.36-1.61,1.54a9.69,9.69,0,0,1-2.17.22c-.69,0-1.19-1.31-1.82-1.48s-1.46.19-2-.14-1.43-.45-1.91-.92-.1-1.6-.43-2.18a6.54,6.54,0,0,1-.64-1.75c-.17-.63-.93-1.14-.93-1.83s-.49-1.53-.32-2.16.9-1.22,1.23-1.8,1.42-.53,1.89-1,.65-1.16,1.24-1.5.93-1.35,1.58-1.53a9,9,0,0,1,2.14,0,8,8,0,0,1,2,.53,7.89,7.89,0,0,1,1.74,1c.58.34,1.44.35,1.91.82s1.24.9,1.58,1.48.1,1.5.28,2.16S258.36,220.94,258.36,221.63Z"/><path class="cls-7" d="M442.57,442.65s84.6,7.17,106.11-37.54"/><path class="cls-7" d="M445,383.29s84.61,7,106-37.71"/><path class="cls-7" d="M440.19,323.75s84.61,7.16,106.11-37.54"/><path d="M254.78,220.33a6.19,6.19,0,0,1-.33,1.66c-.16.58.4,1.49.11,2s-1.45.39-1.87.81a5.68,5.68,0,0,1-1.34.94c-.51.3-.65,1.51-1.23,1.67a8,8,0,0,1-1.89-.05c-.61,0-1-.9-1.61-1a5.5,5.5,0,0,1-1.57-.47c-.52-.29-1.64.15-2.06-.27a8,8,0,0,1-1.15-1.55,8.24,8.24,0,0,1-.58-1.82c-.15-.56.71-1.26.71-1.86a6.43,6.43,0,0,1,0-1.69c.16-.58-.24-1.41,0-1.92a7.83,7.83,0,0,1,1.24-1.4c.42-.42,1.26-.3,1.77-.6s.84-1,1.42-1.17a7.68,7.68,0,0,1,1.82-.56c.6,0,1,1.25,1.59,1.4s1.58-.74,2.09-.45a8.21,8.21,0,0,1,1.4,1.3c.42.42.16,1.37.46,1.89s1.16.78,1.31,1.36S254.78,219.72,254.78,220.33Z"/><path class="cls-3" d="M170.55,458.37A31.11,31.11,0,0,1,139,489.81c-17.71,0-32-13.73-32-31.44s14.32-32.6,32-32.6S170.55,440.67,170.55,458.37Z"/><path class="cls-8" d="M163,455.46a31.12,31.12,0,0,1-31.56,31.44c-17.71,0-32-13.74-32-31.44s14.32-32.61,32-32.61S163,437.75,163,455.46Z"/><path class="cls-9" d="M143.06,455c2.4,0,4.8.45,7.2.47a6.38,6.38,0,0,1,4.83,1.71c1.26,1.28,2.68,2.92,2.68,4.85s-.05,3.71-.05,5.57,0,3.72-.07,5.57c-.05,3.35-2,4.92-5.32,5-2.86,0-5.71.62-8.57.61s-5.71-.47-8.56-.53a6.83,6.83,0,0,1-6.68-6.48c0-2-.17-3.92-.17-5.87s.17-3.92.19-5.87c0-3.39,2-5.48,5.46-5.49C137,454.51,140,455,143.06,455Zm2.49,7.07c0,1,.87,2.37,1.9,2.37a17.77,17.77,0,0,0,4.83-.33,9,9,0,0,0-.58-2.51c-.17-.57-.32-1.09-.8-1.14a28.48,28.48,0,0,0-3.47-.11c-1,0-1.93.41-1.93,1.43C145.49,462,145.55,462,145.55,462.11Zm.06,8.87c0,.19-.47.19-.47.39a2.53,2.53,0,0,0,2.33,2c1.09,0,2.07-.65,3.1-.79.61-.09,1-.58,1.23-1.23a4,4,0,0,0,.4-1.86,17.25,17.25,0,0,0-4.69-.5A2,2,0,0,0,145.61,471Zm-5.22,2.24a3.56,3.56,0,0,0,.47-2.19,2.52,2.52,0,0,0-2.37-2c-2.26,0-2.42-.82-4.19.59-.44,3.91-.65,3.18,3.13,3.19C138.37,472.76,139.33,473.22,140.39,473.22ZM134,464c1.84,1.33,2.3.47,4.57.47a2.5,2.5,0,0,0,2-2.36c0-.12-.69-.12-.69-.24,0-1-.32-1.42-1.35-1.42l-1.26,0C133.75,460.39,133.48,460.28,134,464Z"/><path class="cls-10" d="M143.06,455c2.4,0,4.8.45,7.2.47a6.38,6.38,0,0,1,4.83,1.71c1.26,1.28,2.68,2.92,2.68,4.85s-.05,3.71-.05,5.57,0,3.72-.07,5.57c-.05,3.35-2,4.92-5.32,5-2.86,0-5.71.62-8.57.61s-5.71-.47-8.56-.53a6.83,6.83,0,0,1-6.68-6.48c0-2-.17-3.92-.17-5.87s.17-3.92.19-5.87c0-3.39,2-5.48,5.46-5.49C137,454.51,140,455,143.06,455Zm2.49,7.07c0,1,.87,2.37,1.9,2.37a17.77,17.77,0,0,0,4.83-.33,9,9,0,0,0-.58-2.51c-.17-.57-.32-1.09-.8-1.14a28.48,28.48,0,0,0-3.47-.11c-1,0-1.93.41-1.93,1.43C145.49,462,145.55,462,145.55,462.11Zm.06,8.87c0,.19-.47.19-.47.39a2.53,2.53,0,0,0,2.33,2c1.09,0,2.07-.65,3.1-.79.61-.09,1-.58,1.23-1.23a4,4,0,0,0,.4-1.86,17.25,17.25,0,0,0-4.69-.5A2,2,0,0,0,145.61,471Zm-5.22,2.24a3.56,3.56,0,0,0,.47-2.19,2.52,2.52,0,0,0-2.37-2c-2.26,0-2.42-.82-4.19.59-.44,3.91-.65,3.18,3.13,3.19C138.37,472.76,139.33,473.22,140.39,473.22ZM134,464c1.84,1.33,2.3.47,4.57.47a2.5,2.5,0,0,0,2-2.36c0-.12-.69-.12-.69-.24,0-1-.32-1.42-1.35-1.42l-1.26,0C133.75,460.39,133.48,460.28,134,464Z"/><path class="cls-9" d="M143.22,452c-2.95,0-5.9.55-8.85.52-3.25,0-4.69-1.46-4.72-4.65,0-.57.15-1.15.15-1.72a5.66,5.66,0,0,1,5.68-5.78c2.55,0,5.09-.66,7.63-.66s5.08.6,7.63.63c3.19.05,6.09,2.5,6.1,5.7,0,.1,0,.21,0,.31,0,3.39-3.06,5.63-6.45,5.65C148,452.05,145.6,452,143.22,452Zm-.27-3.51c2.47,0,5-.57,7.41-.51,1.35,0,1.56-.74,1.64-1.8.09-1.23-.56-1.63-1.61-1.62-2.41,0-4.81,0-7.21,0s-4.81.6-7.21.58c-1.2,0-1.93-.06-1.9,1.21s.63,1.43,1.88,1.4C138.28,447.67,140.62,448.52,143,448.52Z"/><path class="cls-10" d="M143.22,452c-2.95,0-5.9.55-8.85.52-3.25,0-4.69-1.46-4.72-4.65,0-.57.15-1.15.15-1.72a5.66,5.66,0,0,1,5.68-5.78c2.55,0,5.09-.66,7.63-.66s5.08.6,7.63.63c3.19.05,6.09,2.5,6.1,5.7,0,.1,0,.21,0,.31,0,3.39-3.06,5.63-6.45,5.65C148,452.05,145.6,452,143.22,452Zm-.27-3.51c2.47,0,5-.57,7.41-.51,1.35,0,1.56-.74,1.64-1.8.09-1.23-.56-1.63-1.61-1.62-2.41,0-4.81,0-7.21,0s-4.81.6-7.21.58c-1.2,0-1.93-.06-1.9,1.21s.63,1.43,1.88,1.4C138.28,447.67,140.62,448.52,143,448.52Z"/><path class="cls-9" d="M113.3,445.77c-1.39,0-1.39.34-2.79.34-1,0-1.93-1.46-1.93-2.49,0-.51.32-.51.32-1,0-1,.58-1.21,1.61-1.21,3.55,0,3.55-.39,7.09-.39s3.54.12,7.09.12c1,0,1.38.45,1.38,1.48,0,.48.72.48.72.95,0,1-1.07,1.47-2.1,1.47-1.31,0-1.31.28-2.61.28-1,0-1.32,1-1.32,2,0,3.62-.23,3.62-.23,7.25s-.86,3.62-.86,7.24.49,3.63.49,7.26.43,3.62.43,7.25c0,1-1.21,1.2-2.25,1.2-.65,0-.65.19-1.3.19-1,0-1.29-.36-1.29-1.39,0-3.62-.36-3.62-.36-7.24s0-3.61,0-7.23,0-3.61,0-7.23-.87-3.62-.87-7.24C114.51,446.32,114.33,445.77,113.3,445.77Z"/><path class="cls-10" d="M113.3,445.77c-1.39,0-1.39.34-2.79.34-1,0-1.93-1.46-1.93-2.49,0-.51.32-.51.32-1,0-1,.58-1.21,1.61-1.21,3.55,0,3.55-.39,7.09-.39s3.54.12,7.09.12c1,0,1.38.45,1.38,1.48,0,.48.72.48.72.95,0,1-1.07,1.47-2.1,1.47-1.31,0-1.31.28-2.61.28-1,0-1.32,1-1.32,2,0,3.62-.23,3.62-.23,7.25s-.86,3.62-.86,7.24.49,3.63.49,7.26.43,3.62.43,7.25c0,1-1.21,1.2-2.25,1.2-.65,0-.65.19-1.3.19-1,0-1.29-.36-1.29-1.39,0-3.62-.36-3.62-.36-7.24s0-3.61,0-7.23,0-3.61,0-7.23-.87-3.62-.87-7.24C114.51,446.32,114.33,445.77,113.3,445.77Z"/><path class="cls-9" d="M157.54,435.2c0,.45-.72.45-.72.9,0,1-.44,1.41-1.47,1.41-4,0-4,.5-8.09.5s-4,.44-8.09.44-4-.33-8.09-.33c-1,0-1.37-1-1.37-2,0-.45-.32-.45-.32-.9,0-1,.66-2.28,1.69-2.28,4,0,4,.2,8.08.2s4.05.2,8.1.2,4,.18,8.09.18C156.38,433.5,157.54,434.17,157.54,435.2Z"/><path class="cls-10" d="M157.54,435.2c0,.45-.72.45-.72.9,0,1-.44,1.41-1.47,1.41-4,0-4,.5-8.09.5s-4,.44-8.09.44-4-.33-8.09-.33c-1,0-1.37-1-1.37-2,0-.45-.32-.45-.32-.9,0-1,.66-2.28,1.69-2.28,4,0,4,.2,8.08.2s4.05.2,8.1.2,4,.18,8.09.18C156.38,433.5,157.54,434.17,157.54,435.2Z"/><path class="cls-9" d="M124.63,477.34v1a2.67,2.67,0,0,1-2.21-2.36c0-3.09.66-3.09.66-6.18s-.59-3.09-.59-6.19.75-3.09.75-6.19-.49-3.09-.49-6.19a2.23,2.23,0,0,1,1.88-2.24v.59a1.61,1.61,0,0,1,1.76,1.65c0,3.09.59,3.09.59,6.18s0,3.1,0,6.19-.91,3.09-.91,6.19.48,3.09.48,6.19C126.51,477,125.66,477.34,124.63,477.34Z"/><path class="cls-10" d="M124.63,477.34v1a2.67,2.67,0,0,1-2.21-2.36c0-3.09.66-3.09.66-6.18s-.59-3.09-.59-6.19.75-3.09.75-6.19-.49-3.09-.49-6.19a2.23,2.23,0,0,1,1.88-2.24v.59a1.61,1.61,0,0,1,1.76,1.65c0,3.09.59,3.09.59,6.18s0,3.1,0,6.19-.91,3.09-.91,6.19.48,3.09.48,6.19C126.51,477,125.66,477.34,124.63,477.34Z"/><path class="cls-9" d="M108.86,449.09c.84-.41,1,.69,2,.69s1.52.35,1.52,1.38c0,.84.88,1.67.88,2.49,0,2.13,0,4.25,0,6.38s-.14,4.26-.15,6.38-.8,4.26-.82,6.38c0,3.37-1,4.78-4.47,5,.36-1.48.28-2.72.57-4.09a10.17,10.17,0,0,0,.33-2.2c0-2.19.53-4.39.53-6.59s-.46-4.39-.46-6.59-.27-4.4-.27-6.59C108.48,450.94,108.86,450,108.86,449.09Z"/><path class="cls-10" d="M108.86,449.09c.84-.41,1,.69,2,.69s1.52.35,1.52,1.38c0,.84.88,1.67.88,2.49,0,2.13,0,4.25,0,6.38s-.14,4.26-.15,6.38-.8,4.26-.82,6.38c0,3.37-1,4.78-4.47,5,.36-1.48.28-2.72.57-4.09a10.17,10.17,0,0,0,.33-2.2c0-2.19.53-4.39.53-6.59s-.46-4.39-.46-6.59-.27-4.4-.27-6.59C108.48,450.94,108.86,450,108.86,449.09Z"/><path class="cls-9" d="M108.86,435.73c0-.48.07-.48.07-1,0-1,.49-1.85,1.52-1.85,3.56,0,3.56-.32,7.11-.32s3.55.42,7.1.42a1.63,1.63,0,0,1,1.69,1.75c0,.48.46.48.46,1,0,1-1.12,1.63-2.15,1.63-3.55,0-3.55,0-7.1,0s-3.55.57-7.11.57C109.42,437.89,108.86,436.76,108.86,435.73Z"/><path class="cls-10" d="M108.86,435.73c0-.48.07-.48.07-1,0-1,.49-1.85,1.52-1.85,3.56,0,3.56-.32,7.11-.32s3.55.42,7.1.42a1.63,1.63,0,0,1,1.69,1.75c0,.48.46.48.46,1,0,1-1.12,1.63-2.15,1.63-3.55,0-3.55,0-7.1,0s-3.55.57-7.11.57C109.42,437.89,108.86,436.76,108.86,435.73Z"/><path class="cls-7" d="M453.41,509c-102.71,51.82-232.6-6.74-261.78-115.87-9-33.62-8.61-63.33-3.26-88,9.52-43.88,38.88-63.67,38.88-63.67,4-13.34-106.23,18-167.06,36.15-1.53.46-2-3.16-.5-3.78L226,200c17.17-8.59,21.46-8.59,30-8.59,38.22,1.07,25.83,40.62,11.48,53.53-28.26,25.44-65.14,65-45.06,112,3.84,6.77,7.5,12.59,11,17.55.37.39,4.91,5.32,4.91,5.32,23.57,25.65,56.52,27,80.9,3.38,33.26-32.27,32.87-100.2,67.54-136.38,24.45-25.51,45.92-25.58,72-22.14,9.19,1.21,26.7,5.22,41.17,8.23,25.68,5.34,53.54-7.15,61.75-16.47"/></g></g></svg>