<svg xmlns="http://www.w3.org/2000/svg" viewBox="0 0 594.26 206.04"><title>資產 1</title><g id="圖層_2" data-name="圖層 2"><g id="圖層_1-2" data-name="圖層 1"><path d="M15.1,61.67C14.69,73.91,17.91,139,0,116.08c7.56-3.92-1.76-80.42,15.1-54.41m39-23.47c.74,8.95-17,4.53-22,5.53v86.54C3.5,161.62,42.39,22.56,7.63,43.74-22,30.84,55.87,27.05,54.11,38.2M6,11.45c-.48-9.22,44-9.22,43.49,0,.63,9.44-44.09,9.44-43.49,0M49.47,60.92V112C34,146.22,34.2,26.28,49.47,60.92m85.95-49.33c-.21,9.15-83.57,9.13-83.85,0,.22-9.13,83.58-9.14,83.85,0m-5.91,63c21.33,60.79-25,66.2-72.12,54.4-21.07-60.81,24.9-66.16,72.12-54.4M72,62.26C25.07,32.37,98.93,15.44,124.43,29,145.17,68.84,96.06,62.83,72,62.26M88,81.69c-12.23-.35-26.76-2.65-22.27,15,12.81-.24,27.07,3.74,22.27-15m0,24.66C79,107.76,60.4,101,65.77,117.56,73,128,94.44,122.74,88,106.35M74.44,52.4c3.1-1.72,43.82,4.12,42-3.73,10.25-23.14-67.4-16.12-42,3.73m46.78,33.78c-6.46-10.36-29.17-5.82-22.57,10.46,8.28-1.61,28.08,5.63,22.57-10.46m0,20.17c-13.39.09-27.36-3.53-22.57,15.55,12.74.49,27.08,2.46,22.57-15.55"/><path d="M154.77,60.4c-3-3.88-.85-8.41,5.61-8.45,1.34-4.28-3.77-23.19,4.78-22.27,13.14,2.52-5.69,28.84,15.54,20.17V26.24c-18.18,7.21-32.49-19.51-11.36-23.47,26.79-10.53,67.71,21.45,20.33,23.48V33c22.34-3.5,22.38,11.12,0,7.62-3.25,13.56,12.06,4.91,17.49,5.53,19,9.37-37.57,14.59-52.39,14.28M154.7,131c-.42-1.15,4.88-8.23,6-11.36,23.34-19.79,3.93,33.21-6,11.36m104.17-.6c68.19-37.21-96.34,1.9-91.32-26.45-4.34-31.28,3.17-48.16,37.67-41.4,1.41-9.34,17.43-11.35,10.16,0h48.27c56.28,48.62-82,16.79-84.89,33.33.68,3.85,122.2-8.65,100.29,6.57,2.29,2.51-118.83-5.81-96.71,4.64h94.92c27.4,4.77-5.79,45.21-18.39,23.32M199.68,17.8C208,6.16,167.84,7.41,169.49,14.43c-1.83,8.12,27,4,30.19,3.37m63.37,54.48c.83-5.16-85.29-5.29-84.29,0-3.08,2.68,87.36,2.68,84.29,0m0,9.26c2.39-1.6-92.86-5.46-84.29,3.28,2.07-2.24,87.25,4.8,84.29-3.28m-74.43,48.58c-5.55-8.58,3.31-19.22,9.87-8.52,6.74,9.09-3.81,20-9.87,8.52M209.7,35.81c22-5.62,38.13-25.8,6.27-13.92C202.19,20.55,234.88-8,239.14,2.17c.88,10,75.4-6.9,18.83,22.43,16.21,1.12,54.54,20.13,10.61,11.51-20.14-15.83-45.5,11.53-58.88-.3m7.62,93.11c-4.24-8-1.29-14.38,6.58-10.46,10.26,8.05,1,25.8-6.58,10.46m5.61-73c-22.64-33.85,89-20,46.26,1.87-4.85-.8-43.07,1.94-46.26-1.87m44.91-7.1c5.23-8.39-51.25-7-34.68,2.24,2-1,35.74,2.52,34.68-2.24m-3.29-35.87c.19-1.14-29.64-.11-30-.45,5.47,11.63,28.91,5.24,30,.45M244.82,128.48c-3.21-6.95-5.21-11.29,2.54-12,12.89,1.4,8.16,27.6-2.54,12"/><path d="M426.12,112c5-91.31,7.85-120.9-95.82-100.13C326.68,28.15,311,131.66,343,128.78c14.67-5.43,88.88,14.59,83.11-16.75m-87.37-37.1v0ZM413,107.25c4.15,18.14-57.19,5.34-64.87,9-16.79,3.1-6.38-34.53-9.12-42.45,28.82,5.41,88.73-19.73,74,33.48m0-46H339C327.24,6.61,368.39,22.94,404,21c16.36-3,6.34,32.41,9,40.21"/><path d="M484,108.3c.24,4.44-6.8,25.61-15.69,26.3-18.13,1,10.19-46.88,15.69-26.3m23.92-18c-53.43,24.29-36.26-45.55-38.72-73.92-2.77-17.48,44.31-17.15,41.41,0-1.22,6.23,2.85,70.44-2.69,73.92m-8.37-70.47C483.59,2.07,476.94,28.88,480.23,43c20.34,4.1,20.6-6.17,19.28-23.16m0,33.47c-21.35-4.61-20.2,7.62-19.28,24.52,17,18.32,22.17-10.46,19.28-24.52m16,57.85c10.56,15.84-3.56,33-10.32,12.4-6.59-10.31.38-30.48,10.32-12.4m-2.24-64c57.46-35.36-14.59-26,7.76-42.75,27.1,1.16,92.35-11.32,66.36,37.22-13.17,17.77-55.13,2.43-10.45-7.62,3.05-65.23-54.64,43.73-63.67,13.15m71.74,48c-29.87,7.93-85.24,8-62.77-38.42C552.47,48.48,607,48.58,585,95.15m-9-12.71c10.85-24.51-37.67-21-45-13.16-10.9,24.51,37.74,21.07,45,13.16M549.28,111c4.91,13.06,11,19.65-.9,21.82-16.06-5.17-15.65-46,.9-21.82m45,16.74C588,148.83,571.85,115.39,569.6,108c4.66-19.23,24.7,14.27,24.66,19.73"/><path d="M53.85,196.8a2.34,2.34,0,0,1-2.29-2.29V169.76a2.36,2.36,0,0,1,2.29-2.29H67.63a2.34,2.34,0,0,1,2.29,2.29v.93A2.32,2.32,0,0,1,67.63,173H58.76c-.25,0-.37.1-.37.32v6a.33.33,0,0,0,.37.37h8.07a2.24,2.24,0,0,1,1.61.66,2.15,2.15,0,0,1,.68,1.59v.64a2.16,2.16,0,0,1-.68,1.59,2.24,2.24,0,0,1-1.61.66H58.76a.32.32,0,0,0-.37.36v9.36a2.24,2.24,0,0,1-.66,1.61,2.15,2.15,0,0,1-1.59.68Z"/><path d="M90.21,197.2q-11.25,0-11.25-11V169.76a2.36,2.36,0,0,1,2.29-2.29h2.33a2.36,2.36,0,0,1,2.3,2.29v16.88a5.75,5.75,0,0,0,1,3.89,5.45,5.45,0,0,0,6.75,0,5.81,5.81,0,0,0,1-3.89V169.76A2.36,2.36,0,0,1,97,167.47h2.17a2.34,2.34,0,0,1,2.29,2.29v16.39q0,11.06-11.25,11"/><path d="M113.39,196.8a2.34,2.34,0,0,1-2.29-2.29V169.76a2.36,2.36,0,0,1,2.29-2.29h2.49a2.12,2.12,0,0,1,1.59.69,2.22,2.22,0,0,1,.66,1.6v21.06c0,.21.12.32.37.32h9.76a2.16,2.16,0,0,1,1.6.68,2.2,2.2,0,0,1,.69,1.61v1.08a2.34,2.34,0,0,1-2.29,2.29Z"/><path d="M148.43,197.2q-11.25,0-11.25-11V169.76a2.34,2.34,0,0,1,2.29-2.29h2.33a2.36,2.36,0,0,1,2.29,2.29v16.88a5.75,5.75,0,0,0,1,3.89,5.45,5.45,0,0,0,6.75,0,5.75,5.75,0,0,0,1.05-3.89V169.76a2.34,2.34,0,0,1,2.29-2.29h2.16a2.34,2.34,0,0,1,2.29,2.29v16.39q0,11.06-11.24,11"/><path d="M187.31,196.8a2.34,2.34,0,0,1-2.29-2.29V169.76a2.36,2.36,0,0,1,2.29-2.29h2.49a2.12,2.12,0,0,1,1.59.69,2.23,2.23,0,0,1,.67,1.6v21.06c0,.21.11.32.36.32h9.76a2.19,2.19,0,0,1,1.61.68,2.22,2.22,0,0,1,.68,1.61v1.08a2.32,2.32,0,0,1-2.29,2.29Z"/><path d="M229.18,194.35q-2.77,2.85-7.76,2.85t-7.75-2.85c-1.85-1.9-2.77-4.57-2.77-8s.92-6.1,2.77-8,4.43-2.85,7.75-2.85,5.91,1,7.76,2.85,2.77,4.57,2.77,8-.92,6.09-2.77,8m-4.76-12.82a3.77,3.77,0,0,0-6,0,12.37,12.37,0,0,0,0,9.65,3.77,3.77,0,0,0,6,0,12.37,12.37,0,0,0,0-9.65"/><path d="M242,196.8a2.14,2.14,0,0,1-1.58-.68,2.21,2.21,0,0,1-.67-1.61V178.2a2.21,2.21,0,0,1,.67-1.61,2.14,2.14,0,0,1,1.58-.68h1.65a2.24,2.24,0,0,1,1.63.66,2.39,2.39,0,0,1,.7,1.63l0,.32s0,0,0,0l.08-.08a8.07,8.07,0,0,1,6.27-3c2.43,0,4.19.69,5.26,2.07s1.61,3.73,1.61,7v9.88a2.21,2.21,0,0,1-.67,1.61,2.14,2.14,0,0,1-1.58.68h-1.77a2.32,2.32,0,0,1-2.29-2.29v-9.68a6.2,6.2,0,0,0-.64-3.32,2.69,2.69,0,0,0-2.33-.9,3.65,3.65,0,0,0-2.59,1.14,3.39,3.39,0,0,0-1.19,2.48v10.28a2.24,2.24,0,0,1-.66,1.61,2.15,2.15,0,0,1-1.59.68Z"/><path d="M275.18,196.4a7.12,7.12,0,0,1-5.77-2.79,11.81,11.81,0,0,1-2.27-7.66c0-3.32.73-5.89,2.17-7.71a7.1,7.1,0,0,1,5.87-2.73,7.71,7.71,0,0,1,6.06,3l.08.08s0,0,0,0v-.32a2.33,2.33,0,0,1,.73-1.63,2.26,2.26,0,0,1,1.64-.66h1.49a2.32,2.32,0,0,1,2.29,2.29V195c0,3.62-1,6.36-3,8.24s-4.88,2.81-8.66,2.81a27.07,27.07,0,0,1-4.34-.32,2.59,2.59,0,0,1-1.61-1,2.82,2.82,0,0,1-.64-1.81v-.81a1.5,1.5,0,0,1,.68-1.28,1.73,1.73,0,0,1,1.49-.28,18.18,18.18,0,0,0,4.14.52,5.6,5.6,0,0,0,4.22-1.39c.88-.92,1.32-2.47,1.32-4.64V194s0,0,0,0a.12.12,0,0,0-.08,0,7.64,7.64,0,0,1-5.82,2.45m2.13-16.07q-3.82,0-3.82,5.62a7.18,7.18,0,0,0,1,4.22,3.29,3.29,0,0,0,2.8,1.41,3.79,3.79,0,0,0,2.69-1.07,3.29,3.29,0,0,0,1.12-2.47v-3.89a3.67,3.67,0,0,0-1.12-2.72,3.73,3.73,0,0,0-2.69-1.1"/><path d="M314.15,173.14a2.34,2.34,0,0,1-2.29-2.29v-1.09a2.34,2.34,0,0,1,2.29-2.29h17.91a2.2,2.2,0,0,1,1.61.69,2.16,2.16,0,0,1,.68,1.6v1.09a2.16,2.16,0,0,1-.68,1.6,2.2,2.2,0,0,1-1.61.69h-5.14a.29.29,0,0,0-.32.32v21a2.32,2.32,0,0,1-2.29,2.29H321.9a2.32,2.32,0,0,1-2.29-2.29v-21a.29.29,0,0,0-.32-.32Z"/><path d="M349.34,197.2q-5.46,0-8.42-2.77T338,186.36c0-3.51.87-6.2,2.63-8.06s4.29-2.79,7.61-2.79q9.57,0,9.72,10.44a2.07,2.07,0,0,1-.74,1.63,2.48,2.48,0,0,1-1.71.66H344.76c-.27,0-.38.13-.32.37a4.34,4.34,0,0,0,1.7,3.15,7.45,7.45,0,0,0,4.16.94,16,16,0,0,0,3.9-.52,1.71,1.71,0,0,1,1.51.32,1.67,1.67,0,0,1,.66,1.37V194a3,3,0,0,1-.62,1.83,2.46,2.46,0,0,1-1.59,1,25.42,25.42,0,0,1-4.82.44m-1-17.31a3.66,3.66,0,0,0-2.73.94,5.38,5.38,0,0,0-1.16,3.24c0,.21.09.32.28.32h6.79a.32.32,0,0,0,.36-.36q-.17-4.14-3.54-4.14"/><path d="M368.22,196.8a2.16,2.16,0,0,1-1.59-.68,2.24,2.24,0,0,1-.66-1.61V178.2a2.24,2.24,0,0,1,.66-1.61,2.16,2.16,0,0,1,1.59-.68h2a2.18,2.18,0,0,1,1.59.68,2.24,2.24,0,0,1,.66,1.61v1.69a0,0,0,0,0,0,0s.08,0,.08,0a9.84,9.84,0,0,1,6.95-3.9,1.82,1.82,0,0,1,1.59.56,2.3,2.3,0,0,1,.66,1.65v.32a2.24,2.24,0,0,1-.66,1.61,2.52,2.52,0,0,1-1.63.76,7.94,7.94,0,0,0-5,2.23,6.73,6.73,0,0,0-1.79,4.84v6.55a2.24,2.24,0,0,1-.66,1.61,2.16,2.16,0,0,1-1.59.68Z"/><path d="M392.49,196.8a2.21,2.21,0,0,1-1.61-.68,2.19,2.19,0,0,1-.68-1.61V178.2a2.19,2.19,0,0,1,.68-1.61,2.21,2.21,0,0,1,1.61-.68H394a2.23,2.23,0,0,1,1.63.66,2.52,2.52,0,0,1,.74,1.63l0,.36a0,0,0,0,0,0,0c.06,0,.08,0,.08,0a6.82,6.82,0,0,1,5.43-3.05,5.6,5.6,0,0,1,2.93.66,6.18,6.18,0,0,1,2,2.35s0,.08.08.08l.08-.08q2.78-3,5.78-3,3.42,0,4.95,1.83t1.52,6.2v11A2.32,2.32,0,0,1,417,196.8h-1.77a2.34,2.34,0,0,1-2.29-2.29V184a5.73,5.73,0,0,0-.48-2.88,2,2,0,0,0-1.8-.7,2.66,2.66,0,0,0-1.79.76,2.1,2.1,0,0,0-.87,1.49v11.89a2.19,2.19,0,0,1-.68,1.61,2.22,2.22,0,0,1-1.61.68h-1.76a2.21,2.21,0,0,1-1.61-.68,2.19,2.19,0,0,1-.68-1.61V184a5.88,5.88,0,0,0-.47-2.88,2,2,0,0,0-1.78-.7,2.75,2.75,0,0,0-1.81.76,2.1,2.1,0,0,0-.89,1.49v11.89a2.19,2.19,0,0,1-.68,1.61,2.21,2.21,0,0,1-1.61.68Z"/><path d="M456.76,197.2q-6.58,0-10.36-3.89t-3.78-11.17q0-7.15,3.66-11.11t10.2-4a30.19,30.19,0,0,1,5.47.44,2.38,2.38,0,0,1,1.56,1,2.89,2.89,0,0,1,.61,1.81v1.28a1.54,1.54,0,0,1-.69,1.33,1.74,1.74,0,0,1-1.48.28,18.33,18.33,0,0,0-4.66-.6,6.91,6.91,0,0,0-5.65,2.45q-2,2.44-2,7.11a10.64,10.64,0,0,0,2.17,7.11,7.27,7.27,0,0,0,5.79,2.53,18.47,18.47,0,0,0,4.7-.6,1.78,1.78,0,0,1,1.51.28,1.53,1.53,0,0,1,.7,1.32V194a2.87,2.87,0,0,1-.63,1.81,2.47,2.47,0,0,1-1.58,1,29.92,29.92,0,0,1-5.51.44"/><path d="M478.86,197.2a6.14,6.14,0,0,1-4.56-1.79,6.27,6.27,0,0,1-1.79-4.64q0-7.31,10.85-7.31h1.45c.24,0,.36-.1.36-.32v-.2a2.77,2.77,0,0,0-.79-2.21,4,4,0,0,0-2.63-.68,27.35,27.35,0,0,0-5.86.76,1.78,1.78,0,0,1-1.51-.36,1.66,1.66,0,0,1-.66-1.37V179a2.89,2.89,0,0,1,.62-1.82,2.48,2.48,0,0,1,1.59-1,33.21,33.21,0,0,1,6.1-.68q5.27,0,7.46,1.89t2.19,6.26v10.85a2.34,2.34,0,0,1-2.29,2.29H487.9a2.3,2.3,0,0,1-1.65-.66,2.34,2.34,0,0,1-.72-1.63v-.44s0,0,0,0-.08,0-.08,0a8,8,0,0,1-6.55,3.13m4.5-10q-4.91,0-4.9,3a2.25,2.25,0,0,0,.64,1.71,2.37,2.37,0,0,0,1.73.62,4.18,4.18,0,0,0,3.13-1.22,4.46,4.46,0,0,0,1.21-3.28v-.48a.32.32,0,0,0-.36-.36Z"/><path d="M503,196.8a2.15,2.15,0,0,1-1.59-.68,2.24,2.24,0,0,1-.66-1.61V178.2a2.24,2.24,0,0,1,.66-1.61,2.15,2.15,0,0,1,1.59-.68h2a2.15,2.15,0,0,1,1.59.68,2.24,2.24,0,0,1,.66,1.61v1.69a0,0,0,0,0,0,0c.06,0,.08,0,.08,0a9.86,9.86,0,0,1,6.95-3.9,1.8,1.8,0,0,1,1.59.56,2.31,2.31,0,0,1,.67,1.65v.32a2.25,2.25,0,0,1-.67,1.61,2.47,2.47,0,0,1-1.63.76,8,8,0,0,0-5,2.23,6.73,6.73,0,0,0-1.79,4.84v6.55a2.24,2.24,0,0,1-.66,1.61,2.14,2.14,0,0,1-1.58.68Z"/><path d="M534.1,197.2q-5.46,0-8.42-2.77c-2-1.85-2.95-4.54-2.95-8.07s.88-6.2,2.63-8.06,4.29-2.79,7.62-2.79q9.56,0,9.72,10.44a2.1,2.1,0,0,1-.74,1.63,2.52,2.52,0,0,1-1.71.66H529.52c-.27,0-.37.13-.32.37a4.31,4.31,0,0,0,1.71,3.15,7.42,7.42,0,0,0,4.16.94,16,16,0,0,0,3.89-.52,1.69,1.69,0,0,1,1.51.32,1.67,1.67,0,0,1,.66,1.37V194a3,3,0,0,1-.62,1.83,2.44,2.44,0,0,1-1.59,1,25.34,25.34,0,0,1-4.82.44m-1-17.31a3.63,3.63,0,0,0-2.73.94,5.38,5.38,0,0,0-1.17,3.24c0,.21.09.32.28.32h6.79a.32.32,0,0,0,.36-.36c-.11-2.76-1.28-4.14-3.53-4.14"/></g></g></svg>